<svg xmlns="http://www.w3.org/2000/svg" viewBox="0 0 128 23" fill="none"><g clip-path="url(#clip0_141_1647)"><path d="M25.2678 0.000183105H27.0585C27.4507 0.000183105 27.7861 0.27188 27.86 0.648929L30.1282 12.4095L30.3953 13.768C30.5261 14.5221 30.6682 15.315 30.8103 16.1357C30.9524 16.9563 31.0832 17.7215 31.1912 18.4368H31.3219C31.4982 17.228 31.8506 15.1653 32.385 12.2487L34.5792 1.0038C34.6531 0.62675 34.9885 0.355053 35.3808 0.355053H37.5864C37.9786 0.355053 38.314 0.62675 38.3879 1.0038L40.5879 12.2487C41.1165 15.1653 41.4747 17.228 41.6509 18.4368H41.7816C41.8896 17.7215 42.0204 16.9563 42.1625 16.1357C42.3046 15.315 42.4467 14.5277 42.5775 13.768L42.8447 12.4095L45.1128 0.648929C45.181 0.27188 45.5221 0.000183105 45.9143 0.000183105H47.705C48.228 0.000183105 48.6145 0.471495 48.5009 0.97053L43.6519 22.0576C43.5666 22.4235 43.2369 22.6786 42.856 22.6786H40.5765C40.1956 22.6786 39.8602 22.418 39.7806 22.052L37.666 12.6646C37.4215 11.6277 37.1941 10.3968 36.9838 8.97174C36.7735 7.54671 36.6371 6.34903 36.5688 5.37313H36.4381C36.3471 6.38784 36.1993 7.60771 35.989 9.03273C35.7787 10.4578 35.5513 11.6665 35.3069 12.6591L33.1922 22.0465C33.1126 22.4124 32.7772 22.673 32.3963 22.673H30.1168C29.7359 22.673 29.4062 22.4124 29.321 22.052L24.472 0.97053C24.3526 0.471495 24.7448 0.000183105 25.2678 0.000183105Z" fill="#3D2F88"></path><path d="M57.0904 0.000183105H54.7427C54.3675 0.000183105 54.0434 0.249701 53.9525 0.604571L48.518 21.6916C48.3873 22.1962 48.7795 22.6841 49.3082 22.6841H51.1329C51.5138 22.6841 51.8435 22.4291 51.9288 22.0687L55.0041 8.98283C55.2941 7.79623 55.5783 6.55973 55.8682 4.50814H55.9705C56.215 6.23813 56.4992 7.46908 56.8346 8.98283L59.9441 22.0687C60.0293 22.4291 60.3591 22.6841 60.7399 22.6841H62.5306C63.0593 22.6841 63.4515 22.1962 63.3207 21.6916L57.8806 0.604571C57.7896 0.249701 57.4599 0.000183105 57.0904 0.000183105Z" fill="#3D2F88"></path><path d="M68.5675 15.0932L63.3661 1.06479C63.1728 0.549122 63.5707 0.000183105 64.1335 0.000183105H65.873C66.2255 0.000183105 66.5324 0.216432 66.6461 0.538033L69.0791 7.54671C69.6305 9.1658 70.0228 10.3524 70.2445 11.112H70.3127L71.5065 7.48572L73.9111 0.543577C74.0247 0.216432 74.3317 0.000183105 74.6842 0.000183105H76.4578C77.0262 0.000183105 77.4185 0.549122 77.2252 1.06479L72.0238 15.0932C71.9897 15.182 71.9726 15.2707 71.9726 15.3649V21.8801C71.9726 22.3182 71.6088 22.6786 71.154 22.6786H69.4316C68.9825 22.6786 68.613 22.3237 68.613 21.8801V15.3649C68.613 15.2707 68.5959 15.182 68.5618 15.0932" fill="#3D2F88"></path><path d="M84.1207 13.8457L83.4727 14.7994C83.3817 14.9324 83.3362 15.0822 83.3362 15.243V21.8857C83.3362 22.3237 82.9724 22.6841 82.5177 22.6841H80.8293C80.3802 22.6841 80.0107 22.3293 80.0107 21.8857V0.79864C80.0107 0.355053 80.3746 0.000183105 80.8236 0.000183105H82.512C82.9611 0.000183105 83.3306 0.355053 83.3306 0.79864V6.8037C83.3306 7.62434 84.4447 7.90713 84.8597 7.19184L89.271 0.371687C89.4188 0.138804 89.6803 0.000183105 89.9588 0.000183105H91.9143C92.5624 0.000183105 92.9546 0.704378 92.5965 1.23114L87.0597 9.47077C86.8891 9.72029 86.8834 10.0474 87.0369 10.308L93.6822 21.4864C93.9949 22.0187 93.6027 22.6841 92.9773 22.6841H91.0218C90.7262 22.6841 90.4534 22.5289 90.3113 22.2738L85.5135 13.9066C85.2179 13.3854 84.4618 13.3577 84.1207 13.8512" fill="#3D2F88"></path><path d="M98.1617 21.1038C96.9338 19.8396 96.3199 18.0653 96.3199 15.7753V0.79864C96.3142 0.355053 96.6837 0.000183105 97.1328 0.000183105H98.9234C99.3725 0.000183105 99.742 0.355053 99.742 0.79864V15.7753C99.742 17.1171 100.043 18.1263 100.64 18.8027C101.237 19.4848 102.067 19.823 103.13 19.823C104.193 19.823 105.057 19.4848 105.654 18.8027C106.251 18.1207 106.552 17.1116 106.552 15.7753V0.79864C106.547 0.355053 106.91 0.000183105 107.359 0.000183105H109.116C109.565 0.000183105 109.935 0.355053 109.935 0.79864V15.7753C109.935 18.0653 109.326 19.8396 108.11 21.1038C106.893 22.3681 105.233 23.0002 103.13 23.0002C101.027 23.0002 99.3953 22.3681 98.1674 21.1038" fill="#3D2F88"></path><path d="M125.641 1.92979C126.88 3.21619 127.5 5.01272 127.5 7.32492C127.5 9.63712 126.88 11.5279 125.641 12.7977C124.402 14.073 122.64 14.7106 120.36 14.7106H118.388C117.939 14.7106 117.569 15.0655 117.569 15.5091V21.8857C117.569 22.3237 117.205 22.6841 116.75 22.6841H115.028C114.579 22.6841 114.209 22.3293 114.209 21.8857V0.79864C114.215 0.355053 114.585 0.000183105 115.034 0.000183105H120.36C122.64 0.000183105 124.402 0.643385 125.641 1.92979ZM123.151 10.5465C123.771 9.84228 124.084 8.77212 124.084 7.32492C124.084 4.51923 122.833 3.11638 120.332 3.11638H118.393C117.944 3.11638 117.575 3.47125 117.575 3.91484V10.8126C117.575 11.2507 117.939 11.6111 118.393 11.6111H120.332C121.594 11.6111 122.537 11.2618 123.157 10.5576" fill="#3D2F88"></path><path d="M19.4809 0.000183105H18.0256V22.6897H19.4809V0.000183105Z" fill="#B6CD45"></path><path d="M14.865 11.356C14.3704 10.1362 12.7162 10.1417 12.6536 10.1473C12.6309 10.1473 11.1358 10.0807 8.58345 10.3247C8.59482 10.2859 8.59482 10.2637 8.59482 10.2637C9.58394 5.69476 10.8914 2.41776 11.3803 1.70247C11.6361 1.32542 11.9431 1.026 12.2841 0.815298C12.449 0.71549 12.5172 0.571325 12.466 0.443793C12.3865 0.255269 12.017 0.116648 11.2439 0.294083C10.34 0.504786 9.03254 1.79119 8.33901 2.86689C7.22483 4.59688 6.56541 6.85917 5.99127 8.84977C5.90031 9.16583 5.80936 9.47634 5.72409 9.77022C5.65019 10.0086 5.57629 10.3192 5.49102 10.6851C5.49102 10.6962 5.49102 10.7073 5.48534 10.7184C4.76908 10.8293 4.00734 10.9624 3.20012 11.1232C2.00067 11.3949 1.12524 11.8495 0.590883 12.4595C0.448767 12.6203 0.477191 12.9086 0.664783 13.2247C0.863744 13.5629 1.21051 13.8734 1.56864 13.8734C1.60274 13.8734 1.63685 13.8734 1.67096 13.8623C2.83062 13.6682 3.97323 13.5074 5.07036 13.3799C5.07036 13.4187 5.06467 13.4409 5.06467 13.4409C4.79181 15.0822 4.38252 16.8898 3.83111 18.836C3.69468 19.3129 3.36498 20.3886 3.30813 20.5494C3.08643 21.187 2.59187 21.6362 1.8415 21.8857H1.81876C1.64822 21.9522 1.56295 22.0299 1.56295 22.1241C1.56295 22.3625 2.11436 22.6176 2.44407 22.7341C2.67145 22.8117 2.95 22.856 3.21718 22.856C3.34224 22.856 3.46161 22.8449 3.57531 22.8283C4.24041 22.7174 4.74065 22.2683 4.79181 22.2128C5.24658 21.7859 5.61608 21.2148 5.92305 20.4607C7.04861 17.4221 7.62844 14.9657 7.91267 13.4409C7.94109 13.3355 7.96383 13.2302 7.98657 13.1248C7.98657 13.1138 7.98657 13.1027 7.99225 13.0916C11.6929 12.7977 14.3647 12.831 14.467 12.831C14.5068 12.831 14.774 12.8421 14.9389 12.6203C15.1321 12.3707 15.1037 11.9438 14.8593 11.3449" fill="#B6CD45"></path><path d="M4.82605 3.67087C5.13871 4.20317 4.71236 5.01827 3.86535 5.49512C3.01835 5.97198 2.08038 5.92762 1.76773 5.39531C1.45508 4.86301 1.88142 4.04792 2.72843 3.57106C3.57544 3.09421 4.5134 3.13856 4.82605 3.67087Z" fill="#B6CD45"></path></g><defs><clipPath id="clip0_141_1647"><rect width="127" height="23" fill="white" transform="translate(0.5 0.000183105)"></rect></clipPath></defs></svg>